<?xml version="1.0" standalone="no"?>
<!DOCTYPE svg PUBLIC "-//W3C//DTD SVG 20010904//EN"
 "http://www.w3.org/TR/2001/REC-SVG-20010904/DTD/svg10.dtd">
<svg version="1.0" xmlns="http://www.w3.org/2000/svg"
 width="500.000000pt" height="500.000000pt" viewBox="0 0 500.000000 500.000000"
 preserveAspectRatio="xMidYMid meet">

<g transform="translate(0.000000,500.000000) scale(0.100000,-0.100000)"
fill="#000000" stroke="none">
<path d="M2115 3173 c-11 -2 -31 -13 -45 -24 l-25 -20 35 17 c44 22 102 21
136 -1 15 -9 23 -12 19 -5 -9 14 -69 41 -87 39 -7 -1 -22 -4 -33 -6z"/>
<path d="M2094 3115 c-10 -8 -14 -15 -7 -15 6 0 15 5 18 10 8 13 61 13 88 -1
21 -10 21 -10 3 5 -25 20 -76 21 -102 1z"/>
<path d="M2123 3082 c-8 -5 1 -8 22 -8 21 0 30 3 22 8 -6 4 -16 8 -22 8 -5 0
-16 -4 -22 -8z"/>
<path d="M1881 3066 c-21 -25 -25 -83 -7 -110 9 -14 16 -39 16 -56 l0 -31 -28
21 c-15 11 -44 23 -65 27 -47 7 -50 -11 -8 -56 22 -24 38 -31 65 -31 35 0 36
-1 36 -40 0 -32 -6 -46 -26 -63 l-25 -22 58 4 c52 3 56 4 38 17 -10 8 -22 14
-27 14 -4 0 -8 20 -8 45 0 43 1 45 30 45 43 0 84 23 98 56 7 14 11 29 8 31
-11 12 -78 -10 -106 -33 l-30 -26 0 35 c0 19 7 40 15 47 23 19 29 73 11 109
-18 34 -28 38 -45 17z"/>
<path d="M2140 3030 c0 -5 5 -10 10 -10 6 0 10 5 10 10 0 6 -4 10 -10 10 -5 0
-10 -4 -10 -10z"/>
<path d="M2120 2950 c0 -16 7 -20 30 -20 23 0 30 4 30 20 0 16 -7 20 -30 20
-23 0 -30 -4 -30 -20z"/>
<path d="M2120 2895 c0 -10 10 -15 30 -15 20 0 30 5 30 15 0 10 -10 15 -30 15
-20 0 -30 -5 -30 -15z"/>
<path d="M2120 2842 c0 -10 5 -23 10 -28 13 -13 -24 -54 -48 -54 -10 0 -35 9
-57 20 -48 25 -45 25 -45 -5 0 -26 9 -32 26 -16 5 6 25 5 51 -2 37 -9 45 -9
62 7 19 18 20 17 24 -26 3 -38 4 -37 5 15 1 41 6 59 17 63 8 4 15 15 15 25 0
14 -7 19 -30 19 -22 0 -30 -5 -30 -18z"/>
<path d="M1405 2686 c-69 -31 -96 -92 -68 -153 l17 -38 5 52 c11 90 69 128
189 121 54 -3 60 -1 47 12 -21 20 -150 25 -190 6z"/>
<path d="M1671 2675 c1 -22 16 -48 22 -38 3 5 0 19 -8 29 -8 10 -14 15 -14 9z"/>
<path d="M2500 2656 c-90 -24 -174 -97 -212 -183 -38 -86 -34 -229 7 -263 13
-11 13 -8 4 20 -7 18 -9 60 -6 96 13 164 146 305 289 307 38 1 46 3 36 13 -21
19 -70 24 -118 10z"/>
<path d="M2287 2645 c-3 -7 -25 -16 -49 -20 -39 -6 -58 -22 -225 -191 -101
-102 -183 -189 -183 -193 0 -5 7 -12 16 -15 11 -4 69 48 198 179 108 109 191
185 202 185 17 1 74 42 74 53 0 12 -29 14 -33 2z"/>
<path d="M2720 2631 c11 -39 3 -69 -22 -77 -26 -8 -17 -28 15 -32 36 -4 51 26
37 77 -5 21 -17 44 -25 51 -12 10 -13 7 -5 -19z"/>
<path d="M1823 2620 c-23 -5 -55 -16 -72 -25 -34 -17 -86 -90 -76 -105 12 -19
33 -9 53 24 34 57 93 78 246 85 79 4 130 10 129 16 -4 13 -222 16 -280 5z"/>
<path d="M1612 2558 c6 -18 25 -20 31 -3 5 10 0 15 -14 15 -12 0 -19 -5 -17
-12z"/>
<path d="M1310 2440 c0 -11 48 -25 56 -17 3 2 -9 9 -25 15 -18 7 -31 7 -31 2z"/>
<path d="M1482 2400 c-7 -12 -23 -20 -38 -20 -111 0 -208 -97 -183 -184 15
-51 29 -55 29 -7 0 79 61 140 155 156 72 12 76 15 73 43 -4 32 -20 38 -36 12z"/>
<path d="M2851 2356 c-17 -68 -13 -75 14 -27 28 48 32 71 11 71 -8 0 -18 -19
-25 -44z"/>
<path d="M2997 2393 c-3 -5 -8 -23 -12 -40 -6 -29 -4 -33 13 -33 14 0 22 9 27
30 7 30 1 50 -15 50 -5 0 -11 -3 -13 -7z"/>
<path d="M3631 2363 c-20 -71 -13 -81 20 -31 30 46 31 68 4 68 -8 0 -19 -17
-24 -37z"/>
<path d="M3801 2323 c-13 -43 -26 -86 -28 -95 -4 -13 0 -18 14 -18 15 0 24 15
42 73 13 40 22 81 20 92 -8 41 -26 21 -48 -52z"/>
<path d="M3260 2358 c0 -51 -47 -94 -123 -112 -32 -8 -32 -29 1 -34 29 -4 120
36 137 62 19 27 19 90 0 106 -13 11 -15 7 -15 -22z"/>
<path d="M3510 2359 c0 -52 -47 -95 -123 -113 -40 -10 -28 -31 16 -29 45 3
113 36 127 62 14 28 12 74 -5 97 -13 18 -14 17 -15 -17z"/>
<path d="M3148 2368 c-38 -31 -61 -88 -35 -88 19 1 99 78 92 90 -9 14 -38 13
-57 -2z"/>
<path d="M3400 2367 c-39 -30 -64 -87 -37 -87 19 1 99 78 92 90 -8 13 -36 12
-55 -3z"/>
<path d="M2877 2248 c-25 -53 -52 -98 -59 -101 -19 -7 5 -30 27 -25 20 3 24 9
60 94 17 39 25 74 23 95 -4 32 -7 29 -51 -63z"/>
<path d="M3683 2287 c-22 -29 -50 -72 -62 -95 -12 -23 -26 -42 -31 -42 -5 0
-7 -7 -4 -15 12 -31 42 -15 73 38 18 28 40 66 51 82 23 37 36 85 22 85 -5 0
-28 -24 -49 -53z"/>
<path d="M2726 2278 c-2 -7 -13 -57 -26 -110 -51 -228 -146 -331 -276 -301
-54 12 -57 -4 -3 -23 125 -46 228 23 284 191 26 78 54 213 48 235 -6 22 -22
27 -27 8z"/>
<path d="M2600 2255 c7 -8 21 -15 31 -15 11 0 19 7 19 15 0 10 -10 15 -31 15
-27 0 -30 -2 -19 -15z"/>
<path d="M2987 2263 c-23 -4 -26 -7 -16 -19 6 -8 24 -14 40 -14 22 0 29 5 29
20 0 11 -6 19 -12 19 -7 -1 -26 -4 -41 -6z"/>
<path d="M3872 2199 c-18 -16 -53 -35 -77 -41 -45 -12 -55 -30 -21 -36 36 -7
84 9 122 42 35 31 37 36 24 50 -13 13 -19 12 -48 -15z"/>
<path d="M3270 2180 c-37 -28 -108 -42 -150 -30 l-35 10 25 -20 c48 -36 126
-34 190 7 29 18 30 20 13 36 -17 14 -20 14 -43 -3z"/>
<path d="M1738 2168 c-21 -12 -38 -26 -38 -30 0 -20 36 -20 72 1 l39 22 82
-40 c143 -71 231 -75 333 -17 39 22 42 22 65 6 95 -68 339 -42 339 36 0 8 -20
3 -60 -13 -109 -44 -243 -41 -310 7 -25 18 -26 18 -65 -6 -96 -57 -201 -52
-332 17 -41 21 -77 39 -81 39 -4 0 -24 -10 -44 -22z"/>
<path d="M3525 2180 c-3 -5 -30 -17 -60 -25 -41 -12 -63 -14 -90 -6 -31 8 -35
8 -25 -4 44 -52 218 -31 203 25 -6 22 -18 26 -28 10z"/>
<path d="M1610 2143 c-30 -18 -79 -43 -110 -54 -66 -26 -185 -36 -230 -20 -28
9 -31 9 -20 -4 52 -63 273 -35 403 51 33 22 37 27 26 42 -8 9 -13 17 -14 18 0
0 -25 -15 -55 -33z"/>
</g>
</svg>